<?xml version="1.0" encoding="iso-8859-1"?>
<!-- Generator: Adobe Illustrator 18.0.0, SVG Export Plug-In . SVG Version: 6.00 Build 0)  -->
<!DOCTYPE svg PUBLIC "-//W3C//DTD SVG 1.1//EN" "http://www.w3.org/Graphics/SVG/1.1/DTD/svg11.dtd">
<svg xmlns="http://www.w3.org/2000/svg" xmlns:xlink="http://www.w3.org/1999/xlink" version="1.1" id="Capa_1" x="0px" y="0px" viewBox="0 0 297 297" style="enable-background:new 0 0 297 297;" xml:space="preserve" width="512px" height="512px">
<g>
	<path d="M270.333,56.95c-4.329-8.57-15.44-29.067-25.102-34.326c-3.397-1.847-7.599-2.745-12.85-2.745   c-7.011,0-14.718,1.626-19.353,2.794C205.24,9.139,190.643,0,173.944,0c-17.362,0-32.452,9.877-39.979,24.303   c-5.965-4.29-13.27-6.827-21.161-6.827c-12.649,0-23.805,6.503-30.315,16.338c-5.787-4.418-13.338-8.97-19.895-8.97   c-0.431,0-0.857,0.018-1.272,0.052c-9.661,0.803-26.013,13.465-32.594,18.872c-2.187,1.797-3.352,4.552-3.118,7.373   c0.235,2.821,1.838,5.346,4.292,6.756c5.422,3.119,23.891,13.29,33.91,13.29c0.468,0,0.92-0.019,1.352-0.054   c1.967-0.164,3.963-0.731,5.937-1.581c-1.244,3.458-1.878,6.936-1.388,10.104c1.44,9.294,14.736,24.183,20.385,30.153   c1.64,1.733,3.91,2.694,6.258,2.694c0.439,0,0.879-0.034,1.319-0.101c2.799-0.434,5.205-2.214,6.439-4.762   c3.581-7.399,11.754-25.614,10.311-34.909c-1.367-8.853-11.242-17.679-17.305-22.344c1.581-7.215,8.008-12.634,15.685-12.634   c8.859,0,16.065,7.212,16.065,16.078v89.513c-1.619-1.472-3.279-2.889-4.917-4.24c-8.721-7.192-20.256-14.889-26.267-17.526   c-3.521-1.542-7.244-2.325-11.067-2.325c-10.966,0-20.896,6.493-25.298,16.541c-6.106,13.943,0.266,30.258,14.203,36.368   c3.149,1.382,8.614,3.032,14.959,4.51c-19.121,14.641-31.484,37.691-31.484,63.585c0,21.754,8.677,37.467,25.788,46.703   c12.69,6.85,29.919,10.04,54.222,10.04c24.302,0,41.532-3.19,54.222-10.04c17.112-9.237,25.789-24.949,25.789-46.703   c0-25.895-12.364-48.945-31.485-63.585c6.344-1.478,11.808-3.128,14.956-4.509c13.942-6.112,20.313-22.429,14.205-36.366   c-4.398-10.051-14.327-16.544-25.297-16.544c-3.823,0-7.548,0.782-11.073,2.327c-6.006,2.634-17.542,10.333-26.263,17.525   c-1.638,1.351-3.297,2.767-4.915,4.238V45.091c0-13.683,11.125-24.816,24.799-24.816c11.168,0,20.632,7.427,23.727,17.604   c-7.646,3.124-21.431,9.885-24.812,19.097c-3.337,9.095,1.25,29.268,3.378,37.519c0.707,2.742,2.716,4.962,5.374,5.938   c0.964,0.353,1.969,0.528,2.969,0.528c1.756,0,3.497-0.537,4.97-1.577c6.96-4.912,23.507-17.319,26.848-26.419   c0.616-1.679,0.93-3.534,1.021-5.481c0.799,0.635,1.629,1.204,2.497,1.677c4.504,2.451,11.237,3.545,21.831,3.545   c10.146,0,20.19-1.06,20.613-1.106c3.312-0.353,6.237-2.311,7.829-5.235C271.781,63.441,271.834,59.921,270.333,56.95z    M63.812,53.952C63.813,53.952,63.813,53.952,63.812,53.952 M63.73,53.951c-2.097-0.051-7.354-2.009-13.447-4.864   c5.529-3.821,10.362-6.612,12.366-6.998c1.76,0.235,5.613,2.566,9.639,5.661C68.775,51.053,65.371,53.593,63.73,53.951z    M93.879,87.875c-3.739-4.715-6.518-8.85-7.099-10.764c0.164-1.666,1.99-5.241,4.488-9.061c3.173,2.967,5.641,5.842,6.119,7.329   C97.457,77.325,96.049,82.166,93.879,87.875z M79.892,143.928c1.17-2.674,3.811-4.401,6.725-4.401c1.005,0,1.992,0.209,2.926,0.618   c6.1,2.676,20.213,12.831,27.795,20.185c-12.338-0.541-29.486-4.9-33.672-6.736C79.962,151.969,78.269,147.633,79.892,143.928z    M198.743,240.257c0,21.889-10.159,36.467-59.736,36.467c-49.576,0-59.735-14.578-59.735-36.467   c0-28.403,19.909-52.226,46.492-58.273l-12.352,35.013c-1.583,4.489,0.771,9.41,5.259,10.993c0.948,0.335,1.916,0.493,2.867,0.493   c3.551,0,6.878-2.213,8.126-5.752l9.609-27.236l9.027,27.093c1.204,3.612,4.566,5.896,8.175,5.896c0.903,0,1.821-0.143,2.725-0.444   c4.515-1.505,6.956-6.385,5.452-10.899l-11.656-34.984C179.206,188.476,198.743,212.119,198.743,240.257z M188.465,140.147   c0.94-0.411,1.927-0.62,2.932-0.62c2.915,0,5.553,1.726,6.724,4.403c1.624,3.704-0.069,8.039-3.777,9.665   c-4.183,1.836-21.331,6.196-33.669,6.735C168.256,152.977,182.369,142.822,188.465,140.147z M200.211,67.033   c-0.905,1.865-4.894,5.811-10.065,10.15c-1.135-6.63-1.629-12.191-1.133-14.17c0.95-1.497,4.686-4.013,9.186-6.361   C199.713,61.235,200.581,65.397,200.211,67.033z M241.748,52.431c-8.169,0-11.248-0.796-12.033-1.055   c-1.412-1.348-3.398-5.502-5.147-10.44c2.639-0.453,5.401-0.782,7.813-0.782c1.945,0,2.893,0.223,3.185,0.309   c1.842,1.333,5.274,5.987,8.973,11.939C243.612,52.421,242.679,52.431,241.748,52.431z" fill="#FFFFFF"/>
	<path d="M34.195,88.905c-2.271,0-4.492,0.923-6.094,2.525c-1.601,1.602-2.524,3.821-2.524,6.093c0,2.271,0.923,4.491,2.524,6.093   c1.602,1.602,3.822,2.525,6.094,2.525c2.27,0,4.491-0.923,6.093-2.525c1.612-1.602,2.525-3.821,2.525-6.093   c0-2.271-0.913-4.491-2.525-6.093C38.686,89.827,36.465,88.905,34.195,88.905z" fill="#FFFFFF"/>
	<path d="M243.814,88.905c-2.271,0-4.491,0.923-6.093,2.525c-1.602,1.602-2.524,3.821-2.524,6.093c0,2.271,0.923,4.491,2.524,6.093   c1.602,1.602,3.822,2.525,6.093,2.525c2.271,0,4.492-0.923,6.093-2.525c1.602-1.602,2.525-3.821,2.525-6.093   c0-2.271-0.923-4.491-2.525-6.093C248.305,89.827,246.085,88.905,243.814,88.905z" fill="#FFFFFF"/>
</g>
<g>
</g>
<g>
</g>
<g>
</g>
<g>
</g>
<g>
</g>
<g>
</g>
<g>
</g>
<g>
</g>
<g>
</g>
<g>
</g>
<g>
</g>
<g>
</g>
<g>
</g>
<g>
</g>
<g>
</g>
</svg>
